/* XPM */
static const char *add_icon[] = {
/* columns rows colors chars-per-pixel */
"32 32 218 2 ",
"   c None",
".  c #8B729F",
"X  c #8B739F",
"o  c #8A749F",
"O  c #8A769F",
"+  c #8A779F",
"@  c #837F9F",
"#  c #847D9F",
"$  c #897B9F",
"%  c #8B70A0",
"&  c #8B72A0",
"*  c #8A73A0",
"=  c #8C70A0",
"-  c #8D70A0",
";  c #8C72A0",
":  c #8C73A0",
">  c #8B74A0",
",  c #8A75A0",
"<  c #8B75A0",
"1  c #8976A0",
"2  c #8A76A0",
"3  c #8B76A0",
"4  c #8B77A1",
"5  c #8B77A2",
"6  c #8C74A0",
"7  c #8C74A1",
"8  c #8C75A1",
"9  c #8C77A1",
"0  c #847DA0",
"q  c #847EA0",
"w  c #8878A0",
"e  c #8979A0",
"r  c #8979A1",
"t  c #8A78A0",
"y  c #8B78A1",
"u  c #8B79A1",
"i  c #887BA0",
"p  c #8A7BA1",
"a  c #8C78A1",
"s  c #8D7AA2",
"d  c #8A7DA2",
"f  c #8C7EA2",
"g  c #8D7EA4",
"h  c #7F849F",
"j  c #7F869F",
"k  c #7D899F",
"l  c #7E889F",
"z  c #7D8A9F",
"x  c #798D9E",
"c  c #7B8D9E",
"v  c #798E9F",
"b  c #798F9F",
"n  c #7A8E9F",
"m  c #77919E",
"M  c #73979E",
"N  c #74959E",
"B  c #74979F",
"V  c #79909F",
"C  c #72999D",
"Z  c #73989E",
"A  c #72999E",
"S  c #709C9E",
"D  c #5FB89D",
"F  c #5EB99D",
"G  c #5FB99D",
"H  c #5EBA9D",
"J  c #5EBB9D",
"K  c #5DBC9D",
"L  c #5DBD9E",
"P  c #5EBC9E",
"I  c #5EBD9E",
"U  c #5FBD9F",
"Y  c #6CA29D",
"T  c #6DA19E",
"R  c #6EA09E",
"E  c #6CA39E",
"W  c #66AD9D",
"Q  c #66AE9D",
"!  c #68A99D",
"~  c #69A99D",
"^  c #68A89E",
"/  c #68AA9E",
"(  c #63B39E",
")  c #66B29F",
"_  c #61B59D",
"`  c #64B59F",
"'  c #60B89D",
"]  c #7E89A0",
"[  c #7F96A5",
"{  c #7F9EA7",
"}  c #7E9FA7",
"|  c #7DA0A7",
" . c #7EA0A8",
".. c #7FA0A8",
"X. c #7EA0A9",
"o. c #7DA4A8",
"O. c #7DA6A8",
"+. c #7DA7A9",
"@. c #7BA9A9",
"#. c #7BABAA",
"$. c #7AACAA",
"%. c #7AADAA",
"&. c #60BEA0",
"*. c #61BEA0",
"=. c #72B1A4",
"-. c #71B2A4",
";. c #78B5AB",
":. c #79B4AC",
">. c #79B5AC",
",. c #78B6AC",
"<. c #78B7AC",
"1. c #76BFAD",
"2. c #78B8AC",
"3. c #74C0AD",
"4. c #74C2AE",
"5. c #75C2AE",
"6. c #73C6AE",
"7. c #72C7AF",
"8. c #73C7AF",
"9. c #74C5AE",
"0. c #75C5AE",
"q. c #72C9AE",
"w. c #73C8AF",
"e. c #72C9AF",
"r. c #73C9AF",
"t. c #72CAAF",
"y. c #83809F",
"u. c #81849F",
"i. c #8681A1",
"p. c #8880A2",
"a. c #8980A2",
"s. c #8883A2",
"d. c #8882A3",
"f. c #8C82A3",
"g. c #8984A3",
"h. c #8985A3",
"j. c #8D81A4",
"k. c #8C83A4",
"l. c #8D83A4",
"z. c #8E84A5",
"x. c #8688A4",
"c. c #8788A4",
"v. c #8789A5",
"b. c #868AA5",
"n. c #868BA5",
"m. c #858DA5",
"M. c #868DA4",
"N. c #868DA5",
"B. c #858EA5",
"V. c #858FA6",
"C. c #8292A5",
"Z. c #8393A6",
"A. c #8095A4",
"S. c #8394A5",
"D. c #8295A6",
"F. c #8395A6",
"G. c #8394A7",
"H. c #8196A6",
"J. c #8296A7",
"K. c #8297A7",
"L. c #8C91A7",
"P. c #8C93A7",
"I. c #809DA7",
"U. c #8F91A8",
"Y. c #8F93A8",
"T. c #8F95A8",
"R. c #8F94A9",
"E. c #809BA8",
"W. c #809DA8",
"Q. c #8F98A9",
"!. c #8D9BA9",
"~. c #8E9DAB",
"^. c #8D9FAA",
"/. c #8F9EAA",
"(. c #8E9FAA",
"). c #8F9FAA",
"_. c #9192A9",
"`. c #9193A9",
"'. c #919AAA",
"]. c #909BAA",
"[. c #919EAC",
"{. c #86A3AB",
"}. c #8FA0AB",
"|. c #90A0AB",
" X c #91A0AC",
".X c #91A1AC",
"XX c #90A5AC",
"oX c #91A5AC",
"OX c #93AEAF",
"+X c #86BEB0",
"@X c #93B1B0",
"#X c #94BDB2",
"$X c #94BDB3",
"%X c #8BCFB5",
"&X c #91C1B2",
"*X c #90C2B2",
"=X c #95CBB6",
"-X c #95CFB7",
";X c #85D4B3",
":X c #85D5B3",
">X c #89D7B5",
",X c #8AD7B6",
"<X c #95D0B7",
"1X c #96D2B7",
"2X c #95D1B8",
"3X c #96D2B8",
"4X c #96D3B8",
"5X c #96D6B8",
"6X c #96DCBA",
"7X c #97DCBA",
"8X c #96DEBB",
"9X c #97E0BB",
"0X c #A8E2C1",
"qX c #C6E7CC",
"wX c #C8E8CC",
"eX c #CBE8CD",
"rX c #DFEBD5",
"tX c #E3ECD6",
/* pixels */
"                                                                ",
"                                                                ",
"                      6 : s.B.S.K.B.s.: y                       ",
"                  . B.%.9.t.t.t.t.t.t.9.#.b.6                   ",
"              3 d ;.t.t.t.<.+.I.{ o.5.t.t.t.,.d 3               ",
"            6 S.t.t.3.F.: s U.|.].Q.,X{.K.3.t.8.K.3             ",
"          6 ..t.t.W.X ].-X9X9X9X8X9X9X5XoX+X9.t.t.{ 6           ",
"        3 S.t.8.b.j.4X9X9X9X9X9X9X9X9X9X8X9X[.b.8.t.C.3         ",
"        q r.t.v._.8X8X9X9X9X9X9X9X9X9X9X9X9X8XU.V.t.8.a.        ",
"      : :.t.W.z.6X8X9X9X9X9X9X9X9X9X9X9X9X9X9X8Xj.{ t.,.:       ",
"      b.t.1.: 4X9X9X9X9X9X9X9X0X0X9X9X9X9X9X9X9X4X3 5.t.v.      ",
"    y %.t.K.[.9X9X9X9X9X9X9X9XwXwX9X9X9X9X9X9X9X9X[.K.t.#.5     ",
"    : 9.t.: 4X9X9X9X9X9X9X9X9XwXwX9X9X9X9X9X9X9X8X4X6 t.0.:     ",
"    s.t.,.g 9X9X9X9X9X9X9X9X9XwXwX9X9X9X9X9X9X9X9X9Xg <.t.a.    ",
"    B.t.o.R.9X9X9X9X9X9X9X9X9XwXwX9X9X9X9X9X9X9X9X9XR.#.t.B.    ",
"    K.t.E..X9X9X9X9X0XwXqXqXqXrXrXqXqXqXqX0X9X9X9X9X}.{ t.K.    ",
"    [ ' N }.9X9X9X9X0XeXeXeXwXtXtXeXeXeXeX0X9X9X9X9X(.C U S.    ",
"    ] K R P.9X9X9X9X9X9X9X9X9XwXwX9X9X9X9X9X9X9X9X9XL.R K ]     ",
"    @ U ^ d 9X9X9X9X9X9X9X9X9XwXwX9X9X9X9X9X9X9X9X9Xd W U @     ",
"    % D K . <X9X9X9X9X9X9X9X9XwXwX9X9X9X9X9X9X9X9X<XO K D %     ",
"    d ^ K x (.9X9X9X9X9X9X9X9XwXwX9X9X9X9X9X9X9X8X(.V K T y     ",
"      u.U ) . 1X9X9X9X9X9X9X9X0X0X9X9X9X9X9X9X9X4X. _ K u.      ",
"      O ~ K B f.8X9X9X9X9X9X9X9X9X9X9X9X9X9X9X8Xf.C K ^ O       ",
"        # K K u.(.9X9X9X9X9X9X9X9X9X9X9X9X9X9XQ.k U K q         ",
"        y x U K _ ;X#X@X9X9X9X9X9X9X9X8XOX#X;X) K K x y         ",
"          3 N K K U i.&X8X_.9X=X=X9X_.6X&Xi.U K K N O           ",
"            + x F K F U =.h.>XoXoX,Xs.-.U K K K x O             ",
"              w @ ! K U F F K Q W U D K K K ^ q O               ",
"                  O h T F K U U U K K F Y u.O                   ",
"                      $ % @ k x m j @ . d                       ",
"                                                                ",
"                                                                "
};
