/* XPM */
static const char *clear_search_icon[] = {
/* columns rows colors chars-per-pixel */
"32 32 188 2 ",
"   c #8D6C9F",
".  c #8E6C9E",
"X  c #8E6D9E",
"o  c #8E6D9F",
"O  c #8F6D9F",
"+  c #8F6E9F",
"@  c #906E9E",
"#  c #906F9E",
"$  c #906E9F",
"%  c #906F9F",
"&  c #93719D",
"*  c #92729D",
"=  c #93729D",
"-  c #90709E",
";  c #91709E",
":  c #91719E",
">  c #90709F",
",  c #91709F",
"<  c #91719F",
"1  c #92719E",
"2  c #92709F",
"3  c #92729E",
"4  c #93739E",
"5  c #93729F",
"6  c #93739F",
"7  c #94739F",
"8  c #94749D",
"9  c #96779D",
"0  c #94749E",
"q  c #95749E",
"w  c #94759E",
"e  c #96759F",
"r  c #96769E",
"t  c #97769E",
"y  c #96779E",
"u  c #99759D",
"i  c #99749E",
"p  c #9A759E",
"a  c #99789D",
"s  c #99799D",
"d  c #99799E",
"f  c #9A789E",
"g  c #9A799E",
"h  c #997A9E",
"j  c #9B7A9E",
"k  c #9C7A9E",
"l  c #8D6CA0",
"z  c #8D6DA0",
"x  c #8F6EA0",
"c  c #8F6FA0",
"v  c #916FA0",
"b  c #8F70A1",
"n  c #9070A1",
"m  c #9375A3",
"M  c #9376A3",
"N  c #9677A2",
"B  c #9176A6",
"V  c #9578A2",
"C  c #9678A2",
"Z  c #9678A3",
"A  c #997DA5",
"S  c #947CAC",
"D  c #947DAD",
"F  c #A3859E",
"G  c #A4849C",
"H  c #A5859C",
"J  c #A5869D",
"K  c #A4869E",
"L  c #AA809D",
"P  c #AA819E",
"I  c #A8879D",
"U  c #A7899D",
"Y  c #A7889E",
"T  c #A8889D",
"R  c #A9899D",
"E  c #A88A9E",
"W  c #B5899D",
"Q  c #B6899D",
"!  c #BC9C9E",
"~  c #9A80A5",
"^  c #9F91B9",
"/  c #9E93BA",
"(  c #9F94BA",
")  c #A184A1",
"_  c #A284A2",
"`  c #A387A2",
"'  c #A386A3",
"]  c #A387A3",
"[  c #AE87A2",
"{  c #A48AA4",
"}  c #AE88A3",
"|  c #AF88A3",
" . c #BD94A5",
".. c #BE94A5",
"X. c #BEA5A0",
"o. c #BFA5A0",
"O. c #BCAFB9",
"+. c #BDB6BB",
"@. c #C4939C",
"#. c #C7A59A",
"$. c #C7A59B",
"%. c #C7A69A",
"&. c #C5A39C",
"*. c #C8A79A",
"=. c #C8A89A",
"-. c #C8AF9E",
";. c #CEB49B",
":. c #CBB29C",
">. c #CCB29C",
",. c #CDB39C",
"<. c #D6B39A",
"1. c #D4B49D",
"2. c #E0BD99",
"3. c #E1BF99",
"4. c #E2BF98",
"5. c #C999A1",
"6. c #C89AA2",
"7. c #C99AA2",
"8. c #CDA1A7",
"9. c #C4AEA9",
"0. c #C8B7AA",
"q. c #DDC59C",
"w. c #EAC897",
"e. c #E6C49A",
"r. c #EAC798",
"t. c #EBC898",
"y. c #EECB98",
"u. c #E8D19B",
"i. c #E8D29C",
"p. c #E9D39C",
"a. c #EAD39C",
"s. c #EDD89D",
"d. c #F3D097",
"f. c #F3D197",
"g. c #F6D397",
"h. c #F7D597",
"j. c #F1D69A",
"k. c #F7D598",
"l. c #F3D89A",
"z. c #F2DC9B",
"x. c #F2DC9C",
"c. c #F4DF9C",
"v. c #F5E09C",
"b. c #FBE79B",
"n. c #FCE89B",
"m. c #FFEB9B",
"M. c #DAC4A0",
"N. c #DAC3A8",
"B. c #DFD2AB",
"V. c #DFD7BE",
"C. c #A29CC2",
"Z. c #A39DC2",
"A. c #A4A1C7",
"S. c #A4A2C8",
"D. c #A5A2C8",
"F. c #BAAECB",
"G. c #BAAECD",
"H. c #AEBFE1",
"J. c #AFC0E1",
"K. c #AFC1E2",
"L. c #B7CAE5",
"P. c #BACDE3",
"I. c #B9CEE5",
"U. c #B4CEEC",
"Y. c #B5CEEC",
"T. c #B4CFED",
"R. c #BAD0E4",
"E. c #B6D1F0",
"W. c #B6D2F0",
"Q. c #B6D3F1",
"!. c #B7D3F1",
"~. c #B7D4F1",
"^. c #B7D4F2",
"/. c #BADBF6",
"(. c #BADCF7",
"). c #BBDCF8",
"_. c #BBDDF8",
"`. c #BBDDF9",
"'. c #BBDEF9",
"]. c #BEE0FA",
"[. c #CAC6DD",
"{. c #E4E6C1",
"}. c #CBE9FD",
"|. c #CCE9FD",
" X c #D1ECFF",
".X c #D1EDFF",
"XX c #D2EDFF",
"oX c None",
/* pixels */
"oXoXoXoXoXoXoXoXoX& w # X # 8 * oXoXoXoXoXoXoXoXoXoXoXoXoXoXoXoX",
"oXoXoXoXoXoXoX, K >.i.c.n.c.i.:.F : oXoXoXoXoXoXoXoXoXoXoXoXoXoX",
"oXoXoXoXoX= E a.m.m.m.m.m.m.m.m.m.p.U 4 oXoXoXoXoXoXoXoXoXoXoXoX",
"oXoXoXoX; ;.m.m.x.-.{ V x Z { -.z.m.m.,.% oXoXoXoXoXoXoXoXoXoXoX",
"oXoXoX: q.m.b.X.M Z.K.!.(.!.K.Z.M o.b.m.q.; oXoXoXoXoXoXoXoXoXoX",
"oXoX= ;.m.v.` ( ^.'.'.'.'.'.'.'.~./ ` j.k.=.t oXoXoXoXoXoXoXoXoX",
"oXoXE m.b.] D.`.'.'.'.'.'.'.'.'.'.`.S.) d.g.I oXoXoXoXoXoXoXoXoX",
"oX, a.m.X.( `.'.'.'.'.'.'.'.'.'.'.'.`./ ! g.4.8 oXoXoXoXoXoXoXoX",
"oXJ m.x.M ^.'.'.'.'.'.'.'.'.'.'.'.'.'.Q.m r.g.H oXoXoXoXoXoXoXoX",
"3 >.m.-.Z.'.'.'.'.'.'.'.'.'.'.'.'.'.'.'.C.&.g.#.h oXoXoXoXoXoXoX",
"q i.m.{ K.'.'.'.'.'.].|..X|.].'.'.'.'.'.J.' g.2.d oXoXoXoXoXoXoX",
"# c.m.V Q.'.'.'.'.'.|.XXXXXX|.'.'.'.'.'.W.N g.t.6 oXoXoXoXoXoXoX",
"o n.m.~ ).'.'.'.S               S '.'.'./.c g.d.2 oXoXoXoXoXoXoX",
"> c.m.{.'.'.'.'.'.'.|.XXXXXX|.'.'.'.'.'.E.C g.t.1 oXoXoXoXoXoXoX",
"8 u.m.0.D Y.'.'.'.'.].|. X}.].'.'.'.'.'.H.' g.2.j oXoXoXoXoXoXoX",
"3 :.m.s.I.'.'.'.'.'.'.'.'.'.'.'.'.'.'.'.C.&.g.$.a oXoXoXoXoXoXoX",
"oXF m.m.+.S _.'.'.'.'.'.'.'.'.'.'.'.'.Q.m r.g.G oXoXoXoXoXoXoXoX",
"oX1 p.m.M.R.Y./.'.'.'.'.'.'.'.'.'.'.`.^ ! g.3.0 oXoXoXoXoXoXoXoX",
"oXoXY m.m.B.B T.).'.'.'.'.'.'.'.'.`.A._ d.g.T oXoXoXoXoXoXoXoXoX",
"oXoX7 ,.m.l.N.P.S '.U.'.'.'.'.'.Q.^ _ y.g.%.r oXoXoXoXoXoXoXoXoX",
"oXoXoX- q.h.g.1.O.L.D '.).W.H.C.m ! d.g.<.5 n oXoXoXoXoXoXoXoXoX",
"oXoXoXoX< *.g.g.g.e.9.V.A N ' &.w.g.g.%.5 [.G.z l oXoXoXoXoXoXoX",
"oXoXoXoXoX9 R 4.g.g.g.g.g.g.g.g.g.3.T y b F.n [ } O oXoXoXoXoXoX",
"oXoXoXoXoXoXoXe H #.2.t.f.t.2.$.G 7 oXoXoX. P 6.8. .+ oXoXoXoXoX",
"oXoXoXoXoXoXoXoXoXs g 1 1 4 k f oXoXoXoXoXi P @.7.8. .+ oXoXoXoX",
"oXoXoXoXoXoXoXoXoXoXoXoXoXoXoXoXoXoXoXoXoXoX@ Q @.5.8. .+ oXoXoX",
"oXoXoXoXoXoXoXoXoXoXoXoXoXoXoXoXoXoXoXoXoXoXoX@ W @.7.8...+ oXoX",
"oXoXoXoXoXoXoXoXoXoXoXoXoXoXoXoXoXoXoXoXoXoXoXoX$ Q @.7.8. .O oX",
"oXoXoXoXoXoXoXoXoXoXoXoXoXoXoXoXoXoXoXoXoXoXoXoXoX$ Q @.7.8.| v ",
"oXoXoXoXoXoXoXoXoXoXoXoXoXoXoXoXoXoXoXoXoXoXoXoXoXoX+ Q @.6.[ v ",
"oXoXoXoXoXoXoXoXoXoXoXoXoXoXoXoXoXoXoXoXoXoXoXoXoXoXoX$ L L + oX",
"oXoXoXoXoXoXoXoXoXoXoXoXoXoXoXoXoXoXoXoXoXoXoXoXoXoXoXoXp u oXoX"
};
