/* XPM */
static const char *clear_icon[] = {
/* columns rows colors chars-per-pixel */
"32 32 243 2 ",
"   c #8C6B9E",
".  c #8D6B9E",
"X  c #8C6B9F",
"o  c #8D6B9F",
"O  c #8B6F9F",
"+  c #8E6D9D",
"@  c #8C6C9E",
"#  c #8D6C9E",
"$  c #8C6C9F",
"%  c #8D6C9F",
"&  c #8C6D9F",
"*  c #8D6D9F",
"=  c #8E6C9E",
"-  c #8F6C9E",
";  c #8F6D9E",
":  c #8E6C9F",
">  c #8F6C9F",
",  c #8F6D9F",
"<  c #8D6E9E",
"1  c #8C6F9E",
"2  c #8C6F9F",
"3  c #8E6E9F",
"4  c #8F6E9F",
"5  c #916D9E",
"6  c #906C9F",
"7  c #936D9F",
"8  c #946C9E",
"9  c #956D9E",
"0  c #956E9F",
"q  c #996E9F",
"w  c #9D6F9F",
"e  c #8A709D",
"r  c #8B709F",
"t  c #8B719F",
"y  c #8B729F",
"u  c #8A739F",
"i  c #92719F",
"p  c #93719F",
"a  c #93729E",
"s  c #93749E",
"d  c #95779D",
"f  c #94779F",
"g  c #95779F",
"h  c #96769E",
"j  c #9A799E",
"k  c #997A9E",
"l  c #997D9E",
"z  c #8E6CA0",
"x  c #8E6DA0",
"c  c #8F6DA0",
"v  c #8C6EA0",
"b  c #8C6FA0",
"n  c #8E6EA0",
"m  c #8E6FA0",
"M  c #8F6EA1",
"N  c #8F6FA1",
"B  c #8F6FA2",
"V  c #906FA1",
"C  c #926EA0",
"Z  c #926FA0",
"A  c #906FA3",
"S  c #8A71A0",
"D  c #8B72A0",
"F  c #8B73A0",
"G  c #8C71A0",
"H  c #8F70A1",
"J  c #8F70A2",
"K  c #8F70A3",
"L  c #8F72A2",
"P  c #8F72A3",
"I  c #8A76A0",
"U  c #877EA2",
"Y  c #8879A1",
"T  c #8A79A0",
"R  c #887BA1",
"E  c #9070A1",
"W  c #9370A0",
"Q  c #9070A3",
"!  c #9172A2",
"~  c #9770A0",
"^  c #9671A0",
"/  c #9173A4",
"(  c #9374A5",
")  c #9476A7",
"_  c #9A72A0",
"`  c #9A74A0",
"'  c #9279A0",
"]  c #9D7AA0",
"[  c #987CA6",
"{  c #977CAA",
"}  c #967DAB",
"|  c #A672A0",
" . c #A374A0",
".. c #AB72A1",
"X. c #AD74A1",
"o. c #AE74A1",
"O. c #AF74A1",
"+. c #A37AA3",
"@. c #A17CA2",
"#. c #A27DA2",
"$. c #A57EA2",
"%. c #B073A1",
"&. c #B476A1",
"*. c #BB77A2",
"=. c #BC77A1",
"-. c #BC77A2",
";. c #C177A1",
":. c #C277A1",
">. c #C177A2",
",. c #C179A2",
"<. c #C378A2",
"1. c #C579A2",
"2. c #C779A2",
"3. c #C879A2",
"4. c #C97AA3",
"5. c #D37BA3",
"6. c #D77DA3",
"7. c #D87DA3",
"8. c #DC7EA4",
"9. c #E07FA4",
"0. c #7E99A6",
"q. c #7D9EA7",
"w. c #7EA0A7",
"e. c #7CA4A9",
"r. c #7CA7A9",
"t. c #7AA9A9",
"y. c #7AAAA9",
"u. c #7CA8A8",
"i. c #79AFAB",
"p. c #7AAFAA",
"a. c #79B3AA",
"s. c #77B8AC",
"d. c #75BDAD",
"f. c #75BEAD",
"g. c #78B8AC",
"h. c #74C1AD",
"j. c #75C2AD",
"k. c #73C4AE",
"l. c #72C5AE",
"z. c #72C9AE",
"x. c #73C8AF",
"c. c #72CAAF",
"v. c #9D809D",
"b. c #9E839C",
"n. c #A1829C",
"m. c #A6869C",
"M. c #A98A9C",
"N. c #AF939E",
"B. c #BD9F97",
"V. c #B49499",
"C. c #B1979D",
"Z. c #B4969C",
"A. c #BDA19C",
"S. c #8680A2",
"D. c #8683A2",
"F. c #8587A3",
"G. c #8489A3",
"H. c #9D83AB",
"J. c #8291A5",
"K. c #8291A6",
"L. c #8294A5",
"P. c #8195A6",
"I. c #8D91A3",
"U. c #9E89B4",
"Y. c #9E89B5",
"T. c #9D8BB5",
"R. c #9F8CB7",
"E. c #AD80A3",
"W. c #AD86A3",
"Q. c #B388A4",
"!. c #B58DA4",
"~. c #BB91A3",
"^. c #B890A5",
"/. c #BD94A5",
"(. c #A08BB6",
"). c #A28EB4",
"_. c #A18EB8",
"`. c #A395BD",
"'. c #A495BD",
"]. c #A495BE",
"[. c #82BAAA",
"{. c #A0ABA3",
"}. c #C7AF97",
"|. c #CCAE96",
" X c #CFB295",
".X c #D5B894",
"XX c #D7BA94",
"oX c #D9BC94",
"OX c #DCBE94",
"+X c #D0B69B",
"@X c #D4B999",
"#X c #D1B89C",
"$X c #D5BB9C",
"%X c #D6BE9D",
"&X c #C196A5",
"*X c #C59BA6",
"=X c #C99EA6",
"-X c #E480A4",
";X c #E580A4",
":X c #EB81A5",
">X c #EC82A5",
",X c #F083A4",
"<X c #F183A5",
"1X c #F283A5",
"2X c #CCA0A6",
"3X c #CCA1A7",
"4X c #CDA1A7",
"5X c #F7DB8F",
"6X c #F9DC8F",
"7X c #F9DD8F",
"8X c #E0C393",
"9X c #E2C592",
"0X c #E6CE9C",
"qX c #E8D19B",
"wX c #EDD79C",
"eX c #F0D391",
"rX c #F2D791",
"tX c #F6DB90",
"yX c #FBE192",
"uX c #FBE394",
"iX c #FAE396",
"pX c #FCE89B",
"aX c #FEEA9B",
"sX c #FFEB9B",
"dX c #A99CC1",
"fX c #AEA4C7",
"gX c #B0A6C8",
"hX c #B2A9CB",
"jX c #B4AFCE",
"kX c #B9B7D5",
"lX c #B8BADA",
"zX c #BFBFDA",
"xX c #C2C4DE",
"cX c #C6CAE2",
"vX c #C2CDE7",
"bX c #C6CDE4",
"nX c #C9D2E8",
"mX c #CAD4E9",
"MX c #CCD6EA",
"NX c #CDD7EB",
"BX c #CDD8EC",
"VX c #CED9ED",
"CX c None",
/* pixels */
"CXCXCXCXCXCXCXCXCXCXCXCXCXCXCXCX1 D CXCXCXCXCXCXCXCXCXCXCXCXCXCX",
"CXCXCXCXCXCXCXCXCXCXCXCXCXCXCX  u.P.G CXCXCXCXCXCXCXCXCXCXCXCXCX",
"CXCXCXCXCXCXCXCXCXCXCXCXCXCXCX# 0.d.2 CXCXCXCXCXCXCXCXCXCXCXCXCX",
"CXCXCXCXCXCXCXCXCXCXCXCXCXCXCXCXR c.U CXCXCXCXCXCXCXCXCXCXCXCXCX",
"CXCXCXCXCXCXCXCXCXCXCXCXCXCXCXCX& x.e.F CXCXCXCXCXCXCXCXCXCXCXCX",
"CXCXCXCXCXCXCXCXCXCXCXCXCXCXCXCX$ a.k.O CXCXCXCXCXCXCXCXCXCXCXCX",
"CXCXCXCXCXCXCXCXCXCXCXV R.J CXCX. K.c.G.CXCXCXCXCXCXCXCXCXCXCXCX",
"CXCXCXCXCXCXCXCXCXCXCXB R.J CXCXCXI c.i.S CXCXCXCXCXCXCXCXCXCXCX",
"CXCXCXCXCXCXCXCXCXCXCXCXCXCXCXCXCX$ l.z.y CXCXCXCXCXCXCXCXCXCXCX",
"CXCXCXCXCXCXCXCXCXCXCXCXCXCXCXCXCXo t.c.L.e CXCXCXCXCXCXCXCXCXCX",
"CXCXCXCXCXCXCXCXE ].K CXCXCXL x CXCXF.c.s.r CXCXCXCXCXCXCXCXCXCX",
"CXCXCXCXCXCXCXCX'.vX].CXCXCXT.lXm CXt c.c.T CXCXCXCXCXCXCXCXCXCX",
"CXCXCXCXCXCXCXCXK `.K CXCXCX/ Y.P CXX h.c.q.r CXCXCXCXCXCXCXCXCX",
"CXCXCXCXCXCXCXCXCXCXCXCXCXCXCXCXCXCX@ w.c.j.v CXCXCXCXCXCXCXCXCX",
"CXCXCXCXCXCXCXCXCXCXCXCX. . . CXCXCXCXS.c.c.D.  CXCXCXCXCXCXCXCX",
"CXCXCXCXCXCXCXCXCXCXCXz @.~.] % CX. CX& c.c.g.J.Y b CXCXCXCXCXCX",
"CXCXCXCXCXCXCXCXCXCXCXp 4X4X3X4 CXCXCXu c.c.c.c.c.p.y % CXCXCXCX",
"CXCXCXCXCXCXCXCXCXCXCX#.4X4X4Xi CXCX$ y.c.f.r.[.{.f N.j CXCXCXCX",
"CXCXCXCXCXCXCXCXCXCX+ W.4X4X4X, CXCX@ I.' g C.qXsXpXaX0Xh CXCXCX",
"CXCX> % % % % % % % - !.4X4X=X, CXCXk #XwXsXaX%XsXA.@XuXv.CXCXCX",
"CXCXq 1X1X1X1X1X1X1X ./.4X4X&X3 A CXM.sX$X+XiXa rXXX|.7X}.= CXCX",
"CXCX..1X1X1X1X1X1X1X~ *X4X4X^.U.(.! m.yXOXV.7XoXtX7X7X7XeX; CXCX",
"CX6 >.1X1X1X1X1X1X,Xc 2X4X4XQ.dXNX{ < .X9X6X7X7X7X7X7X7X7Xb.CXCX",
"CX9 5.1X1X1X1X1X1X;X^ 4X4X4XE.hXVXjXM ).[ Z.6X7X7X7X7X7X7X Xd CX",
"CX5 -X1X1X1X1X1X1X6.` _ Z $.+.kXVXBXmXVXMXH.B.8X7X7X7X7X7X5Xn.l ",
"CX: <X1X1X1X1X1X1X,.6 8.>X&.W xXVXVXVXVXVXzX_.) n % % % % % % s ",
"CXw 1X1X1X1X1X1X1XO.| 1X1X:X% nXVXVXVXVXVXVXVXcXN CXCXCXCXCXCXCX",
"CX%.1X1X1X1X1X1X1X:X>X1X1X7.* VXVXVXVXVXVXVXVXbXH CXCXCXCXCXCXCX",
"C 1.1X1X3.4.1X3.<.<.9.:X*.0 ( gXgXgXgXgXgXgXfX} Q CXCXCXCXCXCXCX",
"8 6.1X1X1.1.1X1.-.-.9.>X2.o.$ $ $ $ $ $ $ $ # CXCXCXCXCXCXCXCXCX",
"> =.<.<.<.<.<.:.;.;.;.;.X.7 CXCXCXCXCXCXCXCXCXCXCXCXCXCXCXCXCXCX",
"CX$ $ $ $ $ $ $ $ $ $ $ CXCXCXCXCXCXCXCXCXCXCXCXCXCXCXCXCXCXCXCX"
};
