/* XPM */
static const char *debug_icon[] = {
/* columns rows colors chars-per-pixel */
"32 32 231 2 ",
"   c #8D6B9E",
".  c #8D6C9F",
"X  c #8D6D9F",
"o  c #8E6D9F",
"O  c #8E6E9F",
"+  c #916B9E",
"@  c #946B9E",
"#  c #916C9E",
"$  c #916C9F",
"%  c #936D9E",
"&  c #926C9F",
"*  c #966C9D",
"=  c #946C9E",
"-  c #966D9E",
";  c #976D9E",
":  c #966D9F",
">  c #986B9C",
",  c #986B9D",
"<  c #996B9D",
"1  c #91709E",
"2  c #91719E",
"3  c #91709F",
"4  c #91719F",
"5  c #92719E",
"6  c #93719E",
"7  c #92709F",
"8  c #93729E",
"9  c #92729F",
"0  c #93729F",
"q  c #94739E",
"w  c #94729F",
"e  c #94749D",
"r  c #94749E",
"t  c #96759E",
"y  c #9A799D",
"u  c #9B799E",
"i  c #A56F9D",
"p  c #A46E9E",
"a  c #A56F9E",
"s  c #A86B9B",
"d  c #AF6B99",
"f  c #A96E9D",
"g  c #B76A98",
"h  c #A7709D",
"j  c #A8709D",
"k  c #B2719C",
"l  c #B2709D",
"z  c #B4719C",
"x  c #BA709C",
"c  c #8C6DA1",
"v  c #8D6EA1",
"b  c #8D6FA1",
"n  c #8F6EA0",
"m  c #8F6EA1",
"M  c #8E6FA1",
"N  c #8F6FA1",
"B  c #8E70A1",
"V  c #8F70A1",
"C  c #8E70A2",
"Z  c #8F70A2",
"A  c #8F70A3",
"S  c #8F71A3",
"D  c #8F72A3",
"F  c #9171A0",
"G  c #9270A0",
"H  c #9272A0",
"J  c #9070A2",
"K  c #9070A3",
"L  c #9071A3",
"P  c #9072A2",
"I  c #9172A3",
"U  c #9073A3",
"Y  c #9173A3",
"T  c #9071A4",
"R  c #9072A4",
"E  c #9173A4",
"W  c #9373A5",
"Q  c #9174A4",
"!  c #9174A5",
"~  c #9375A4",
"^  c #9274A5",
"/  c #9374A5",
"(  c #9276A5",
")  c #9174A6",
"_  c #9275A6",
"`  c #9276A6",
"'  c #9376A6",
"]  c #9277A6",
"[  c #9377A6",
"{  c #9276A7",
"}  c #9377A7",
"|  c #9475A6",
" . c #9576A6",
".. c #9476A7",
"X. c #9676A6",
"o. c #9777A7",
"O. c #9979A0",
"+. c #9A7AA1",
"@. c #9377A8",
"#. c #9479A8",
"$. c #9579A8",
"%. c #977BA8",
"&. c #967AA9",
"*. c #967BAA",
"=. c #977BAA",
"-. c #967CAC",
";. c #967DAC",
":. c #977EAD",
">. c #C36994",
",. c #D66790",
"<. c #D76790",
"1. c #D76891",
"2. c #D16A94",
"3. c #D86891",
"4. c #C3729B",
"5. c #C2739D",
"6. c #C4739C",
"7. c #C3749D",
"8. c #CA739B",
"9. c #CA749C",
"0. c #D8759B",
"q. c #E26990",
"w. c #E17799",
"e. c #E27799",
"r. c #E1769A",
"t. c #E1779A",
"y. c #E2779A",
"u. c #E5779A",
"i. c #EB7698",
"p. c #ED7899",
"a. c #B4929B",
"s. c #B5949B",
"d. c #9881AF",
"f. c #9B83AF",
"g. c #9A84B0",
"h. c #9A84B1",
"j. c #9A85B2",
"k. c #9A86B3",
"l. c #9C85B1",
"z. c #9E8DB7",
"x. c #9E8EB8",
"c. c #A384A3",
"v. c #A484A1",
"b. c #A485A1",
"n. c #A585A1",
"m. c #A586A2",
"M. c #A08EB8",
"N. c #A18FB8",
"B. c #A08EB9",
"V. c #A08FB9",
"C. c #A08FBA",
"Z. c #A290B9",
"A. c #A394BD",
"S. c #A999BF",
"D. c #BDA2A5",
"F. c #D7B59A",
"G. c #D8B599",
"H. c #EAC798",
"J. c #F0CD97",
"K. c #F0CD98",
"L. c #F5D297",
"P. c #F6D397",
"I. c #F0D9AC",
"U. c #F0D8AD",
"Y. c #F0D9AD",
"T. c #A497C0",
"R. c #A598C0",
"E. c #A699C0",
"W. c #A69BC2",
"Q. c #A69CC2",
"!. c #A79CC3",
"~. c #A89DC3",
"^. c #AB9CC2",
"/. c #A89EC3",
"(. c #AC9EC3",
"). c #A9A0C6",
"_. c #AAA1C6",
"`. c #AAA1C7",
"'. c #ABA3C7",
"]. c #ABA2C8",
"[. c #ACA4C8",
"{. c #ADA6CA",
"}. c #AEA7CA",
"|. c #B0A6CA",
" X c #B1A7CB",
".X c #B4AACB",
"XX c #B0ABCE",
"oX c #B0ACCE",
"OX c #B1ACCF",
"+X c #B0ADCF",
"@X c #B6AECE",
"#X c #B7AFCF",
"$X c #B1ADD0",
"%X c #B1AFD1",
"&X c #B4B3D3",
"*X c #B4B3D4",
"=X c #B4B5D5",
"-X c #B5B5D5",
";X c #BBB3D2",
":X c #BAB4D3",
">X c #B7B8D8",
",X c #B7BAD9",
"<X c #B8BAD9",
"1X c #B9BCDB",
"2X c #BABEDC",
"3X c #C2BEDB",
"4X c #BCC2DF",
"5X c #BCC3DF",
"6X c #BCC2E0",
"7X c #BDC4E0",
"8X c #BDC5E0",
"9X c #BDC4E1",
"0X c #BEC5E1",
"qX c #C3C2DD",
"wX c #C4C3DD",
"eX c #C6C5E0",
"rX c #C6C6E0",
"tX c #C7C7E1",
"yX c #C7C8E1",
"uX c #C0C9E4",
"iX c #C0CAE5",
"pX c #C1CCE6",
"aX c #C2CDE7",
"sX c #C9CCE3",
"dX c #CED3E9",
"fX c #CFD4EA",
"gX c #CED7EE",
"hX c #D3DBEF",
"jX c #D4DCEF",
"kX c #D6DFF2",
"lX c None",
/* pixels */
"lXlXlXlXlXlXlXlXlXlXlXlXlXlXlXlXlXlXlXlXlXlXlXlXlXlXlXlXlXlXlXlX",
"lXlXlXlXlXlXlXlXlXlXlXlXlXlXlXlXlXlXlXlXlXlXlXlXlXlXlXlXlXlXlXlX",
"lXlXlXlXlXlXlXlXlXlXlXlXlXlXlXlXlXlXlXlXlXlXlXlXlXlXlXlXlXlXlXlX",
"lXlXlXlXlXlXlXlXlXlXlXlXlXlXlXlXlXlXlXlXW L l.^.=.I lXlXlXlXlXlX",
"lXlX2 y 7 lXlXlXlXlXlXlXlXlXlXlXlXlXlXR (.fXkX@X) lXlXlXlXlXlXlX",
"lXlXu L.F.r 8 lXlXlXlXlXlXlXlXlXlXlX| rXkXkX#X) lXlXlXlXlXlXlXlX",
"lXlX1 G.P.J.a.3 lXlXlXlXlXlXlXlXlXU yXkXkXsX^ lXlXlXlXlXlXlXlXlX",
"lXlXlXt K.P.P.e lXlXlXlXlXlXlXlXlXZ.kXkXkXqX#.lXlXlXlXlXlXP lXlX",
"lXlXlX6 s.P.H.q F lXlXlXlXlXlXlXB `.gXkXkXjX/ lXlXlXlXlXQ &.lXlX",
"lXlXlXlXw q q D.n.H lXlXlXlXlXlXX !.aX|.eXkX:X^ lXlXlX! .XS.lXlX",
"lXlXlXlXlXlX0 b.Y.m.G lXlXlXlXlXlXg.aX&X' eXkX;XQ $.E .XkXf.lXlX",
"lXlXlXlXlXlXlXH b.U.m.G lXlXlXlXlX;.aXaX&X_ wXkXhX3XyXkXdXZ lXlX",
"lXlXlXlXlXlXlXlX9 c.I.m.4 lXlXlX` 6XaXaXaX*X' eXkXkXkXkX^.~ lXlX",
"lXlXlXlXlXlXlXlXlXH v.U.m.G lX[ 5XiXoXaXaXaX&X XkXkXkXrXY lXlXlX",
"lXlXlXlXlXlXlXlXlXlX0 v.U.+.[ 5XaXuX:.OXaXaXaXaXgXkXtX..lXlXlXlX",
"lXlXlXlXlXlXlXlXlXlXlX5 O.%.5XaXA.4XiXiX6X;.h.~.).N.R lXlXlXlXlX",
"lXlXlXlXlXlXlXlXlXlXlXlX{ 7XaXaX[.R.aX6X[ lXlX  C lXlXlXlXlXlXlX",
"lXlXlXlXlXlXlXlXlXlXlX] 7XaXR.].aXaX5X_ c lXlXlXlXlXlXlXlXlXlXlX",
"lXlXlXlXlXlXlXlXlXlX] 7XiXuX6XE.aX5X .h # lXlXlXlXlXlXlXlXlXlXlX",
"lXlXlXlXlXlXlXlX. ] 7XaX+X-.uXaX5Xo.7.p.y.: lXlXlXlXlXlXlXlXlXlX",
"lXlXlXlXlXJ d.Q._.8XuX=XaX$XiX5XX.5.p.p.0.t.: lXlXlXlXlXlXlXlXlX",
"lXlXlXlXK =XaXaXaXaX9X} -XaX5X{ s q.i.p.j l r.; lXlXlXlXlXlXlXlX",
"lXlXlXP %XaX<X/.k.<XaX0XuX5X{ n = 3.2.f u.a l r.- lXlXlXlXlXlXlX",
"lXlXlX#.aX2XN M lXS ,XaX7X} lXlXlX> 1.d p u.a k r.: lXlXlXlXlXlX",
"lXlXlXC.aX'.L lXlXlXj.aX/.v lXlXlXlX< 1.d p u.a k w.: lXlXlXlXlX",
"lXlXlXM.aXB.O lXlXb W.aXT.lXlXlXlXlXlX> 1.d i u.i z e.- lXlXlXlX",
"lXlXlX' pX4X( o T m >XaX*.lXlXlXlXlXlXlX> 1.d i u.6.p.9.% lXlXlX",
"lXlXlXA {.aX4Xx._.1XaX%XZ lXlXlXlXlXlXlXlX> ,.d 4.p.p.x & lXlXlX",
"lXlXlXlXB }.pXaXaXaXXXV lXlXlXlXlXlXlXlXlXlX> <.q.i.8.$ lXlXlXlX",
"lXlXlXlXlXD ` z.V.@.A lXlXlXlXlXlXlXlXlXlXlXlX, >.g + lXlXlXlXlX",
"lXlXlXlXlXlXlXlXlXlXlXlXlXlXlXlXlXlXlXlXlXlXlXlX* @ lXlXlXlXlXlX",
"lXlXlXlXlXlXlXlXlXlXlXlXlXlXlXlXlXlXlXlXlXlXlXlXlXlXlXlXlXlXlXlX"
};
