/* XPM */
static const char *delete_icon[] = {
/* columns rows colors chars-per-pixel */
"32 32 84 1 ",
"  c #8F6B9E",
". c #8E6B9F",
"X c #8F6B9F",
"o c #8D6C9F",
"O c #8F6C9E",
"+ c #916B9E",
"@ c #926B9E",
"# c #966B9E",
"$ c #906C9E",
"% c #916C9E",
"& c #916D9E",
"* c #906C9F",
"= c #916D9F",
"- c #926C9E",
"; c #926C9F",
": c #936D9F",
"> c #966C9D",
", c #946C9E",
"< c #956D9E",
"1 c #976D9E",
"2 c #966E9E",
"3 c #966E9F",
"4 c #996B9D",
"5 c #986D9E",
"6 c #9B6D9E",
"7 c #A16E9D",
"8 c #A36E9D",
"9 c #A56F9D",
"0 c #BC6996",
"q c #BD6A97",
"w c #B16B98",
"e c #AF709B",
"r c #B5709C",
"t c #B5729C",
"y c #916DA0",
"u c #926EA0",
"i c #DE678F",
"p c #C16895",
"a c #D96791",
"s c #C5729B",
"d c #C6729B",
"f c #C6749B",
"g c #C4739C",
"h c #D4759A",
"j c #D4749B",
"k c #DF769A",
"l c #DF779A",
"z c #E0678F",
"x c #E77799",
"c c #E6779A",
"v c #EA7899",
"b c #EB7899",
"n c #EC7899",
"m c #ED7899",
"M c #C679A2",
"N c #CE7BA3",
"B c #EA81A4",
"V c #F181A3",
"C c #F083A4",
"Z c #F283A5",
"A c #F08FA7",
"S c #F090A6",
"D c #F093A8",
"F c #F092A9",
"G c #F093A9",
"H c #F094A9",
"J c #F197AB",
"K c #F198AB",
"L c #F199AC",
"P c #F19AAD",
"I c #F19BAD",
"U c #F09CAE",
"Y c #F3AAB6",
"T c #F3AEB8",
"R c #F4B2BB",
"E c #F7D4CF",
"W c #F7D6D0",
"Q c #F7D8D0",
"! c #F8D9D1",
"~ c #F9E3D7",
"^ c #F8E4D7",
"/ c #F8E4D8",
"( c #FAEFDE",
") c None",
/* pixels */
"))))))))))))))))))))))))))))))))",
"))))))))))))))))))))))))))))))))",
"))))))))))))))))))))))))))))))))",
"))))))))))))))))))))))))))))))))",
"))))))))))2.oooooooooooooooooX3)",
"))))))))):NCZZZZZZZZZZZZZZZZZB;)",
"))))))))<MZZZZZZZZZZZZZZZZZZZV )",
")))))))&emmmmmmmmmmmmmmmmmmmmm.)",
"))))))O7vmmmmmmmmmmmmmmmmmmmmm.)",
"))))))1cmmmmmWJmmmmmmmH!mmmmmm.)",
")))))-kmmmmmmG/KmmmmmD/Jmmmmmm.)",
"))))%jmmmmmmmmD/KmmmD/Kmmmmmmm.)",
")))+smmmmmmmmmmD/KmD/Kmmmmmmmm.)",
"))-rmmmmmmmmmmmmD/T/Lmmmmmmmmm.)",
")u9nmmmmmmmmmmmmmY(Rmmmmmmmmmm.)",
")*lmmmmmmmmmmmmmF/T/Lmmmmmmmmm.)",
")y9nmmmmmmmmmmmS/ImS~Kmmmmmmmm.)",
")):tmmmmmmmmmmS^ImmmS~Jmmmmmmm.)",
")))+dmmmmmmmmA^UmmmmmS~Jmmmmmm.)",
"))))%hmmmmmmmQPmmmmmmmFEmmmmmm.)",
")))))-lmmmmmmmmmmmmmmmmmmmmmmm.)",
"))))))5xmmmmmmmmmmmmmmmmmmmmmm.)",
"))))))$8bmmmmmmmmmmmmmmmmmmmmm.)",
")))))))=1fm6mggm6mggm6mggm6mgg.)",
")))))))),wz4z00z4z00z4z00z4z0q )",
")))))))))-pizzzzzzzzzzzzzzzzza@)",
"))))))))))#.ooooooooooooooooo >)",
"))))))))))))))))))))))))))))))))",
"))))))))))))))))))))))))))))))))",
"))))))))))))))))))))))))))))))))",
"))))))))))))))))))))))))))))))))",
"))))))))))))))))))))))))))))))))"
};
