/* XPM */
static const char *find_icon[] = {
/* columns rows colors chars-per-pixel */
"32 32 221 2 ",
"   c #8D6C9F",
".  c #8E6D9E",
"X  c #8E6D9F",
"o  c #8F6D9F",
"O  c #8F6E9F",
"+  c #906E9E",
"@  c #906F9E",
"#  c #906E9F",
"$  c #906F9F",
"%  c #93719D",
"&  c #92729D",
"*  c #90709E",
"=  c #91709E",
"-  c #90719E",
";  c #91719F",
":  c #92719E",
">  c #92729E",
",  c #93729E",
"<  c #93739E",
"1  c #93739F",
"2  c #94739F",
"3  c #93749E",
"4  c #94749D",
"5  c #94759E",
"6  c #96759E",
"7  c #96759F",
"8  c #97769E",
"9  c #96779E",
"0  c #99759D",
"q  c #9A759E",
"w  c #99799D",
"e  c #98789E",
"r  c #99799E",
"t  c #9A789E",
"y  c #9A799E",
"u  c #997A9E",
"i  c #9B7A9E",
"p  c #9C7A9E",
"a  c #8C6CA0",
"s  c #8D6CA0",
"d  c #8E6DA0",
"f  c #8F70A1",
"g  c #9070A1",
"h  c #9171A1",
"j  c #9373A0",
"k  c #9373A1",
"l  c #9375A2",
"z  c #9476A2",
"x  c #9576A2",
"c  c #9577A2",
"v  c #9578A2",
"b  c #9678A2",
"n  c #9678A3",
"m  c #9779A3",
"M  c #957AA7",
"N  c #967AA6",
"B  c #967BA7",
"V  c #967CA7",
"C  c #A3859E",
"Z  c #A4849C",
"A  c #A5859C",
"S  c #A5869D",
"D  c #A4869E",
"F  c #AA819D",
"G  c #A9809E",
"H  c #AA819E",
"J  c #A8879D",
"K  c #A7899D",
"L  c #A7889E",
"P  c #A8889D",
"I  c #A9899D",
"U  c #AB8A9D",
"Y  c #A88A9E",
"T  c #A98B9E",
"R  c #AE8D9C",
"E  c #AF8E9C",
"W  c #B5899D",
"Q  c #B6899D",
"!  c #AD909E",
"~  c #AF929E",
"^  c #B0939D",
"/  c #B6999D",
"(  c #BB999C",
")  c #9E89AF",
"_  c #9989B5",
"`  c #9A8CB8",
"'  c #9A8DB9",
"]  c #9B8DB9",
"[  c #9E91B8",
"{  c #9E92B9",
"}  c #9F92B9",
"|  c #9C90BB",
" . c #9C91BC",
".. c #AE87A2",
"X. c #A688A2",
"o. c #A98BA3",
"O. c #AE88A3",
"+. c #AF88A3",
"@. c #A98FA4",
"#. c #A990A4",
"$. c #BD94A5",
"%. c #BE94A5",
"&. c #A492B3",
"*. c #A093BB",
"=. c #A99DB9",
"-. c #BCAAB1",
";. c #BFB2B2",
":. c #BFB2B3",
">. c #C4939C",
",. c #C2A19B",
"<. c #C7A59A",
"1. c #C7A59B",
"2. c #C7A69A",
"3. c #C5A69C",
"4. c #C8A79A",
"5. c #C4A99D",
"6. c #C7AE9F",
"7. c #C8A89A",
"8. c #CBA89A",
"9. c #CDAB9A",
"0. c #CEAC9A",
"q. c #CEB49B",
"w. c #CBB29C",
"e. c #CCB29C",
"r. c #CDB39C",
"t. c #CCB09E",
"y. c #CDB59D",
"u. c #CFB69D",
"i. c #D3B19A",
"p. c #D5B39B",
"a. c #D6B39A",
"s. c #D7BF9C",
"d. c #DCBA99",
"f. c #E0BD99",
"g. c #E1BF99",
"h. c #E2BF98",
"j. c #C999A1",
"k. c #C89AA2",
"l. c #C99AA2",
"z. c #CDA1A7",
"x. c #C6ADA7",
"c. c #D8C19D",
"v. c #DAC29D",
"b. c #DDC59C",
"n. c #E3C098",
"m. c #E8C799",
"M. c #EBC898",
"N. c #F2CF97",
"B. c #F0CD98",
"V. c #E8D19B",
"C. c #E8D29C",
"Z. c #E9D39C",
"A. c #EAD39C",
"S. c #ECD69D",
"D. c #F3D097",
"F. c #F3D197",
"G. c #F4D197",
"H. c #F6D397",
"J. c #F7D597",
"K. c #F7D598",
"L. c #F4DF9C",
"P. c #F7DF9D",
"I. c #FBE099",
"U. c #FAE69B",
"Y. c #FCE89B",
"T. c #FDE99B",
"R. c #FEE99B",
"E. c #FEEA9B",
"W. c #FFEB9B",
"Q. c #D9D0BB",
"!. c #EDE6B0",
"~. c #E2E4BF",
"^. c #A6A1C4",
"/. c #A2A0C8",
"(. c #BAAECB",
"). c #BAAFCC",
"_. c #A6ABD1",
"`. c #AAB3D7",
"'. c #ABB6DA",
"]. c #ABB9DB",
"[. c #ACBADC",
"{. c #ADBADD",
"}. c #AEBDE0",
"|. c #B0C5E4",
" X c #B1C5E5",
".X c #B1C6E6",
"XX c #B2C7E6",
"oX c #BACCE2",
"OX c #B4CEEC",
"+X c #B5D2EF",
"@X c #B6D1F0",
"#X c #B6D3F1",
"$X c #B7D3F1",
"%X c #B7D4F1",
"&X c #B8D6F3",
"*X c #B8D7F3",
"=X c #B9D8F4",
"-X c #B9DAF6",
";X c #BADCF7",
":X c #BBDEF9",
">X c #CBC7DD",
",X c #CBD8D7",
"<X c #C0D9EA",
"1X c #C1E1F9",
"2X c #C2E2FB",
"3X c #C2E3FB",
"4X c #C6E2F8",
"5X c #CDEAFE",
"6X c #CEEAFE",
"7X c #D4E8F7",
"8X c #D5E8F7",
"9X c #D2E8F8",
"0X c #D1ECFF",
"qX c #D2EDFF",
"wX c #D8EEFD",
"eX c #EDF2F5",
"rX c #E1F0FA",
"tX c #F2F2F3",
"yX c #F2F3F3",
"uX c #F3F3F3",
"iX c None",
/* pixels */
"iXiXiXiXiXiXiXiXiX% 5 @ . @ 4 < iXiXiXiXiXiXiXiXiXiXiXiXiXiXiXiX",
"iXiXiXiXiXiXiX* D e.C.L.Y.L.C.w.C > iXiXiXiXiXiXiXiXiXiXiXiXiXiX",
"iXiXiXiXiX> Y A.W.W.W.W.W.W.W.W.W.Z.K < iXiXiXiXiXiXiXiXiXiXiXiX",
"iXiXiXiX; q.W.W.W.W.W.W.W.W.W.W.W.W.W.r.= iXiXiXiXiXiXiXiXiXiXiX",
"iXiXiX= b.W.W.W.U.y.#.z h c @.S.E.b.W.W.b.> iXiXiXiXiXiXiXiXiXiX",
"iXiX> q.W.W.W.c.n *.{.%X-X$X}.<X;.! W.I.K.7.8 iXiXiXiXiXiXiXiXiX",
"iXiXY W.W.W.6.M XX:X:X:X:X:X:X:XXX,Xt.0.H.H.J iXiXiXiXiXiXiXiXiX",
"iX* A.W.W.v.V %X:X:X:X:X:X:X:X:X:X*X) m.H.H.h.6 iXiXiXiXiXiXiXiX",
"iXS W.W.U.c XX:X:X4X7X4X:X:X:X:X:X:X:X-.( H.H.A iXiXiXiXiXiXiXiX",
"% e.W.W.u.{ :X:X4XtXuXyXwX5X3X:X:X:X:X^.n.H.H.<.u iXiXiXiXiXiXiX",
"5 C.s.T.@.[.'.:X8XuXuXuXrXqXqX2X:X:X:X;Xx.F.H.f.r iXiXiXiXiXiXiX",
"@ L.~ / v _ ] :X4XyXuXyXwXqXqX6X:X:X;X|   U D.M., iXiXiXiXiXiXiX",
". Y.Y.^   ` -X:X:XwXrXwXqXqXqX0X:X:X .' d E R D.= iXiXiXiXiXiXiX",
"@ L.W.Y.:.-X:X:X:X5XqXqXqXqXqX6X:X:X`.OXm G.0.M.1 iXiXiXiXiXiXiX",
"3 V.W.W.!. X:X:X:X3XqXqXqXqXeX9X:X:X:X{.X.H.H.f.i iXiXiXiXiXiXiX",
"& w.W.W.T { :X:X:X:X3X6X0X6X9X1X:X:X:X[ 9.H.H.1.e iXiXiXiXiXiXiX",
"iXC W.W.Y.~._.;X:X:X:X:X:X:X:X:X:X:X|.b B.H.H.Z iXiXiXiXiXiXiXiX",
"iX> Z.W.W.5.&.;X=X:X:X:X:X:X:X:X:X@XB p.H.H.g.2 iXiXiXiXiXiXiXiX",
"iXiXL W.W.R.P.=./.:X:X:X:X:X:X:X.XN 3.H.H.H.P iXiXiXiXiXiXiXiXiX",
"iXiX3 r.W.I.H.,.Q.oX{.+X&X#X].} n i.H.H.H.2.9 iXiXiXiXiXiXiXiXiX",
"iXiXiX- b.J.H.H.H.d.o.x k l o.8.N.H.H.H.a.k g iXiXiXiXiXiXiXiXiX",
"iXiXiXiX; 4.H.H.H.H.H.H.H.H.H.H.H.H.H.2.j >X).a X iXiXiXiXiXiXiX",
"iXiXiXiXiX8 I h.H.H.H.H.H.H.H.H.H.g.P 9 f (.g ..O.o iXiXiXiXiXiX",
"iXiXiXiXiXiXiX7 A <.f.M.F.M.f.1.Z 2 iXiXiXs H k.z.$.O iXiXiXiXiX",
"iXiXiXiXiXiXiXiXiXw y : : < p t iXiXiXiXiXq H >.l.z.$.O iXiXiXiX",
"iXiXiXiXiXiXiXiXiXiXiXiXiXiXiXiXiXiXiXiXiXiX+ Q >.j.z.$.O iXiXiX",
"iXiXiXiXiXiXiXiXiXiXiXiXiXiXiXiXiXiXiXiXiXiXiX+ W >.l.z.%.O iXiX",
"iXiXiXiXiXiXiXiXiXiXiXiXiXiXiXiXiXiXiXiXiXiXiXiX# Q >.l.z.$.o iX",
"iXiXiXiXiXiXiXiXiXiXiXiXiXiXiXiXiXiXiXiXiXiXiXiXiX# Q >.l.z.+.$ ",
"iXiXiXiXiXiXiXiXiXiXiXiXiXiXiXiXiXiXiXiXiXiXiXiXiXiXO Q >.k...+ ",
"iXiXiXiXiXiXiXiXiXiXiXiXiXiXiXiXiXiXiXiXiXiXiXiXiXiXiX# G F O iX",
"iXiXiXiXiXiXiXiXiXiXiXiXiXiXiXiXiXiXiXiXiXiXiXiXiXiXiXiXq 0 iXiX"
};
