/* XPM */
static const char *open_icon[] = {
/* columns rows colors chars-per-pixel */
"32 32 61 1 ",
"  c #8D6B9F",
". c #8D6C9E",
"X c #8D6C9F",
"o c #8E6C9F",
"O c #8F6C9F",
"+ c #8F6E9F",
"@ c #916D9F",
"# c #8D6DA0",
"$ c #8D6EA0",
"% c #8E6EA1",
"& c #9171A2",
"* c #9373A2",
"= c #9573A2",
"- c #9474A1",
"; c #9375A5",
": c #9A79A3",
"> c #9879A5",
", c #997AA5",
"< c #9C7BA4",
"1 c #9D7DA6",
"2 c #9F8AB4",
"3 c #A285AC",
"4 c #B890A5",
"5 c #BE94A5",
"6 c #A08CB5",
"7 c #A08DB5",
"8 c #AB91B2",
"9 c #AD93B3",
"0 c #AD94B3",
"q c #AD95B3",
"w c #AE94B3",
"e c #AE95B4",
"r c #AF95B4",
"t c #AF96B4",
"y c #B096B7",
"u c #B299B8",
"i c #C99DA7",
"p c #CDA1A7",
"a c #C5AAB1",
"s c #D8BEB6",
"d c #EFD8BE",
"f c #AEA8CB",
"g c #AEA9CC",
"h c #C1ABC3",
"j c #D1BEC6",
"k c #F5E4CF",
"l c #F2E5D9",
"z c #F7EBDC",
"x c #F7ECDD",
"c c #F8ECDD",
"v c #FAEFDE",
"b c #C0C9E4",
"n c #C1CAE5",
"m c #C1CBE5",
"M c #C0CBE6",
"N c #C2CDE7",
"B c #F6ECE9",
"V c #F7EEEA",
"C c #FDF4EE",
"Z c #FFF7F0",
"A c None",
/* pixels */
"AAAAAAAAAAAAAAAAAAAAAAAAAAAAAAAA",
"AAAAAAAAAAAAAAAAAAAAAAAAAAAAAAAA",
"AAAAAAAAAAAAAAAAAAAAAAAAAAAAAAAA",
"AAAAAAAAAAAAAAAAAAAAAAAAAAAAAAAA",
"A%OXXXXXXX&>AAAAAAAAAAAAAAAAAAAA",
"AOVZZZZZZZBy,AAAAAAAAAAAAAAAAAAA",
"AXZZZZZZZZZCu3AAAAAAAAAAAAAAAAAA",
"AXZZZZZZZZZZCh*XXXXXXXXXXXXo AAA",
"AXvvvvvvvvvvvvvvvvvvvvvvvvvl#AAA",
"AXvvvvvvvvvvvvvvvvvvvvvvvvvvXX.@",
"AXvvvvvvvvvvvvvvvvvvvvvvvvvvXpio",
"AXvvvvvvvvvvvvxercvvvvvvvvvvXppX",
"AXvvvvvvvvvvvx0769cvvvvvvvvvXppX",
"AXvvvvvvvvvvcw2nm68zvvvvvvvvXppX",
"AXvvvvvvvvvcw2nNNm68zvvvvvvvXppX",
"AXvvvvvvvvcw2nNNNNm68zvvvvvvXppX",
"AXvvvvvvvve7mMfNNgmm6rvvvvvvXppX",
"AXvvvvvvvvr7b6XNNX7b6tvvvvvvXppX",
"AXvvvvvvvvc0;qXNNXq;qcvvvvvvXppX",
"AXvvvvvvvvvcjcXNNXcjcvvvvvvvXppX",
"AXvvvvvvvvvvvvXNNXvvvvvvvvvvXppX",
"AXXXXXXXXXXX1kXNNXk1XXXXXXXXXppX",
"AXddddddddddddXNNXddddddddddXppX",
"AXaad<daad<daaXNNXaad<daad<dXppX",
"AXaad<daad<daaXNNXaad<daad<dXppX",
"A-sdddddddddddXNNXdddddddddd:45+",
"AA=XXXXXXXXXXXXNNXXXXXXXXXXXXX+A",
"AAAAAAAAAAAAAAXNNXAAAAAAAAAAAAAA",
"AAAAAAAAAAAAAAXNNXAAAAAAAAAAAAAA",
"AAAAAAAAAAAAAAXNNXAAAAAAAAAAAAAA",
"AAAAAAAAAAAAAA$XX$AAAAAAAAAAAAAA",
"AAAAAAAAAAAAAAAAAAAAAAAAAAAAAAAA"
};
