/* XPM */
static const char *remove_icon[] = {
/* columns rows colors chars-per-pixel */
"32 32 121 2 ",
"   c None",
".  c #976BA0",
"X  c #976CA0",
"o  c #976CA1",
"O  c #986BA0",
"+  c #986BA1",
"@  c #986CA1",
"#  c #996CA1",
"$  c #986CA2",
"%  c #986DA2",
"&  c #986DA3",
"*  c #986EA2",
"=  c #996EA2",
"-  c #986FA2",
";  c #996FA2",
":  c #986FA3",
">  c #9A6FA3",
",  c #9970A2",
"<  c #9971A2",
"1  c #9970A4",
"2  c #9972A5",
"3  c #9A72A4",
"4  c #9973A7",
"5  c #9A73A6",
"6  c #9B75A7",
"7  c #9C76A7",
"8  c #9A77A8",
"9  c #9B77A9",
"0  c #9C76A8",
"q  c #9D77A8",
"w  c #9C77AA",
"e  c #9B78AB",
"r  c #9D78AA",
"t  c #9E7AAB",
"y  c #9C7BAC",
"u  c #9E7AAC",
"i  c #9F7BAC",
"p  c #9D7DAD",
"a  c #9E7CAC",
"s  c #9F7CAC",
"d  c #9E7FAE",
"f  c #A07FAF",
"g  c #9F85B2",
"h  c #A283B0",
"j  c #A282B1",
"k  c #A18AB7",
"l  c #A38DB9",
"z  c #A28FBB",
"x  c #A78DB9",
"c  c #A290BB",
"v  c #A197BD",
"b  c #AD97C0",
"n  c #A49AC2",
"m  c #A59BC2",
"M  c #A59CC4",
"N  c #AD9AC1",
"B  c #AA9EC5",
"V  c #AC9FC6",
"C  c #A5A0C6",
"Z  c #ABA1C7",
"A  c #A7A5CA",
"S  c #ADA1C8",
"D  c #ADA2C8",
"F  c #A7A9CD",
"G  c #A9ABCF",
"H  c #B0A7CB",
"J  c #B3A6CA",
"K  c #A6B1CD",
"L  c #A7B2CD",
"P  c #AAAED1",
"I  c #A8B7D1",
"U  c #ABB3D5",
"Y  c #ADB8D8",
"T  c #ACB9D9",
"R  c #ACBBDA",
"E  c #AEBDDB",
"W  c #ADBDDC",
"Q  c #B6B3D4",
"!  c #B8B2D3",
"~  c #BBB8D6",
"^  c #BEBEDB",
"/  c #AFC1DF",
"(  c #B7C0DD",
")  c #AFC3E1",
"_  c #AFC4E1",
"`  c #B9C1E0",
"'  c #BAC2E0",
"]  c #BAC3E0",
"[  c #BAC2E1",
"{  c #BAC4E1",
"}  c #B7C9E4",
"|  c #B7C9E5",
" . c #B8C9E5",
".. c #B9C9E5",
"X. c #B8CAE5",
"o. c #BACAE5",
"O. c #B8CAE6",
"+. c #BBCBE6",
"@. c #BBCCE7",
"#. c #BECDE7",
"$. c #BDCCE8",
"%. c #BECDE8",
"&. c #BFCDE9",
"*. c #BFCEE8",
"=. c #C1C4DF",
"-. c #C3C9E2",
";. c #C3CAE4",
":. c #C6CFE7",
">. c #C0CFE9",
",. c #C6D0E7",
"<. c #C1D0E9",
"1. c #C3D2EA",
"2. c #C4D1EA",
"3. c #C4D2EA",
"4. c #C5D3EB",
"5. c #C6D4EB",
"6. c #C6D4EC",
"7. c #C7D5EC",
"8. c #C9D4EB",
"9. c #CAD7ED",
"0. c #CAD8ED",
/* pixels */
"                                                                ",
"                          + @ @ @ @ X                           ",
"                        +             +                         ",
"                        .             .                         ",
"        2 X @ @ X X @ @ @ @ X X @ @ X X @ @ X @ . . . 2         ",
"        X L I I I I I I I I I I I I I I I I I I I I L @         ",
"        @ I v v I 9 I v v I 9 I I 6 I v v I e I v v I @         ",
"        @ I v v I 9 I v v I 9 I I 9 I v v I 8 I v v I @         ",
"        X L I I I I I I I I I I I I I I I I I I I I L .         ",
"        @ X X @ @ @ @ @ X X @ @ @ @ @ @ @ @ @ X @ @ X ,         ",
"            l _ _ _ _ _ _ _ _ ) _ _ _ _ _ _ _ _ _ k             ",
"            f 0.0.0.0.<.#.&.#.&.#.&.#._ _ _ _ _ _ p             ",
"            q 0.0.0.0.Q { &.&.#.&.#.@.R P ) ) _ _ 4             ",
"            , 0.0.0.0.H u [ #.&.#.&.[ e C _ ) _ _ &             ",
"            @ 8.0.0.0.<.D y [ #.#.{ u n _ _ _ _ ) +             ",
"            @ -.0.0.0.4.&.D y [ { p B _ _ _ _ _ Y +             ",
"            @ ^ 0.0.8.7.$.>.V f u D +._ _ _ _ _ P X             ",
"            @ ! 0.0.0.7.$.>.( 6 6 [ @._ _ _ _ _ A .             ",
"            X J 0.0.0.7.>.` y V D y ( _ _ _ _ _ n X             ",
"              N 0.0.8.8.[ q B #.#.D e Y _ _ _ _ c               ",
"              x 0.0.0.;.y D #.&.#.#.Z 9 R ) _ _ g               ",
"              j 0.0.0.N Z &.#.#.&.$.+.m l ) _ _ p               ",
"              q 0.0.0.0.&.#.#.&.#.&.| ) _ _ _ _ 2               ",
"              2 8.0.0.0.&.@.&.#.&.#.+.) _ _ _ _ @               ",
"              6 ,.0.0.0.>.&.#.&.&.#.+._ _ _ _ W ,               ",
"              q =.0.0.0.<.#.&.&.#.#.| _ _ _ _ U 2               ",
"              @ ~ 0.u @ @ X @ X . u } e @ y _ F @               ",
"                j ,.0.0.2.&.&.#.&.&.| _ _ ) W p                 ",
"                , 2 + @ @ @ @ @ X @ @ @ @ @ 2 +                 ",
"                                                                ",
"                                                                ",
"                                                                "
};
