/* XPM */
static const char *save_icon[] = {
/* columns rows colors chars-per-pixel */
"32 32 89 1 ",
"  c #8D6C9E",
". c #8D6C9F",
"X c #8D6DA0",
"o c #8F6EA0",
"O c #8E6EA1",
"+ c #8F6EA1",
"@ c #8E6FA1",
"# c #8F6FA1",
"$ c #8E6FA2",
"% c #906FA0",
"& c #8E70A1",
"* c #9070A1",
"= c #9171A1",
"- c #9071A2",
"; c #9171A3",
": c #9172A2",
"> c #9071A4",
", c #9072A4",
"< c #9C7BA4",
"1 c #9D7FA8",
"2 c #9A85B1",
"3 c #9B86B3",
"4 c #EB9697",
"5 c #C5AAB1",
"6 c #EDA3A1",
"7 c #EED99C",
"8 c #FFEB9B",
"9 c #EFD8BE",
"0 c #A69CC2",
"q c #A89CC2",
"w c #A99CC2",
"e c #AA9FC5",
"r c #A6A4C7",
"t c #B4ABCA",
"y c #B5ABCA",
"u c #CBB7C3",
"i c #BDC4E1",
"p c #BEC5E1",
"a c #BFC6E2",
"s c #BEC7E2",
"d c #B8D5F2",
"f c #BBDEF9",
"g c #BBDFF9",
"h c #BCDEF9",
"j c #BCDFF9",
"k c #BDDFF9",
"l c #BEDFF9",
"z c #BEE0F9",
"x c #BEE0FA",
"c c #BFE0FA",
"v c #F2E0C8",
"b c #F2E5D9",
"n c #F2E6D9",
"m c #FAEFDE",
"M c #C1CBE5",
"N c #C0CBE6",
"B c #C2CDE7",
"V c #C0E0FA",
"C c #C1E1FA",
"Z c #C2E1FA",
"A c #C2E2FA",
"S c #C3E2FA",
"D c #C3E3FA",
"F c #C4E3FB",
"G c #C7E4FB",
"H c #C9E4FB",
"J c #C9E6FB",
"K c #CAE6FC",
"L c #CBE7FC",
"P c #CDE7FC",
"I c #CEE8FC",
"U c #D8E6F8",
"Y c #D0E8FD",
"T c #D1E9FD",
"R c #D1EAFD",
"E c #D5EBFD",
"W c #D6EBFE",
"Q c #D7EBFE",
"! c #D6ECFE",
"~ c #D7ECFE",
"^ c #D7EDFE",
"/ c #D9EDFE",
"( c #DAEEFE",
") c #DAEFFE",
"_ c #DBEEFF",
"` c #DDEFFF",
"' c #DEEFFF",
"] c #DEF0FF",
"[ c None",
/* pixels */
"[[[[[[[[[[[[[[[[[[[[[[[[[[[[[[[[",
"[[[[[[[[[[[[[[[[[[[[[[[[[[[[[[[[",
"[[[[[[[[[[[[[[[[[[[[[[[[[[[[[[[[",
"[[[, ..................o>[[[[[[[",
"[[[.sBB.ffZHj~]/kF']]].p2@[[[[[[",
"[[[.BBB.flPfT]`Cc_t=y].BM3&[[[[[",
"[[[.BBB.hIhJ]]Gh^]%7*].BBM3&[[[[",
"[[[.BBB.LVS`]IfT]].8.!.BBBN2>[[[",
"[[[.BBB.Fc(]EgK]]].8.c.BBBBio[[[",
"[[[.BBB.gW](zD']]]%7#f.BBBBB.[[[",
"[[[.BBB.Y]`Ax)]]]]y:rf.BBBBB.[[[",
"[[[.BBB+U]HjQ]]]]]Rffd$BBBBB.[[[",
"[[[.BBBe+............O0BBBBB.[[[",
"[[[.BBBBBBBBBBBBBBBBBBBBBBBB.[[[",
"[[[.BBBBBBBBBBBBBBBBBBBBBBBB.[[[",
"[[[.BBBqo..............owBBB.[[[",
"[[[.BBBonmmmmmmmmmmmmmmb#BBB.[[[",
"[[[.BBB.mmmmmmmmmmmmmmmm.BBB.[[[",
"[[[.BBB.mm64444446m646mm.BBB.[[[",
"[[[.BBB.mmmmmmmmmmmmmmmm.BBB.[[[",
"[[[.BBB.mm6444444446mmmm.BBB.[[[",
"[[[.BBB.mmmmmmmmmmmmmmmm.BBB.[[[",
"[[[.BBB.mmmmmmmmmmmmmmmm.BBB.[[[",
"[[[.BBB.mmmmmmmmmmmmmmmm.BBB.[[[",
"[[[.BBB.m1muum1muum1muum.BBB.[[[",
"[[[.BBB.v<9559<9559<955v.BBB.[[[",
"[[[.BBB.9999999999999999.BBB.[[[",
"[[[.aBB.9999999999999999.BBaX[[[",
"[[[;........................-[[[",
"[[[[[[[[[[[[[[[[[[[[[[[[[[[[[[[[",
"[[[[[[[[[[[[[[[[[[[[[[[[[[[[[[[[",
"[[[[[[[[[[[[[[[[[[[[[[[[[[[[[[[["
};
