/* XPM */
static const char *save_as_icon[] = {
/* columns rows colors chars-per-pixel */
"32 32 199 2 ",
"   c #8E6B9E",
".  c #8E6B9F",
"X  c #8D6C9E",
"o  c #8D6C9F",
"O  c #8D6D9F",
"+  c #8F6C9E",
"@  c #8E6D9F",
"#  c #916C9E",
"$  c #946C9D",
"%  c #946D9E",
"&  c #986E9F",
"*  c #9B6E9E",
"=  c #9C6E9D",
"-  c #96769F",
";  c #97779F",
":  c #97789E",
">  c #A36E9D",
",  c #A6719F",
"<  c #B7719C",
"1  c #8D6DA0",
"2  c #8E6CA0",
"3  c #8F6EA0",
"4  c #8E6EA1",
"5  c #8F6EA1",
"6  c #8E6FA1",
"7  c #8F6FA1",
"8  c #8E6FA2",
"9  c #906FA0",
"0  c #9170A0",
"q  c #9070A1",
"w  c #9171A1",
"e  c #9071A2",
"r  c #9171A2",
"t  c #9171A3",
"y  c #9271A2",
"u  c #9072A2",
"i  c #9172A2",
"p  c #9272A2",
"a  c #9373A2",
"s  c #9274A2",
"d  c #9071A4",
"f  c #9072A4",
"g  c #9073A4",
"h  c #9375A4",
"j  c #9175A6",
"k  c #9878A3",
"l  c #9C7CA2",
"z  c #997BA5",
"x  c #947CAC",
"c  c #9C7FA9",
"v  c #997FAD",
"b  c #C0729B",
"n  c #C2729B",
"m  c #CA749B",
"M  c #C8739C",
"N  c #D4749B",
"B  c #EA7799",
"V  c #EA789A",
"C  c #ED7899",
"Z  c #AB8A9C",
"A  c #AC8A9D",
"S  c #AC8B9D",
"D  c #AC8B9E",
"F  c #AD8C9D",
"G  c #AE8D9F",
"H  c #B4929D",
"J  c #BA989B",
"K  c #9782AF",
"L  c #9E80A9",
"P  c #9981AF",
"I  c #9882AE",
"U  c #9A85B1",
"Y  c #9B86B3",
"T  c #9989B5",
"R  c #9F8DB8",
"E  c #9D8FB9",
"W  c #A588A5",
"Q  c #A78AA5",
"!  c #A88BA5",
"~  c #A98CA6",
"^  c #AA8DA6",
"/  c #A389AF",
"(  c #A589AD",
")  c #B697A0",
"_  c #A38EB1",
"`  c #A38EB2",
"'  c #A18AB5",
"]  c #A18EB6",
"[  c #A28FB6",
"{  c #A290B7",
"}  c #AC9DBF",
"|  c #AD9DBF",
" . c #B397B0",
".. c #B199B6",
"X. c #D3B19A",
"o. c #D6B39A",
"O. c #DBB999",
"+. c #DFBC98",
"@. c #DEBC99",
"#. c #EED99C",
"$. c #F3D097",
"%. c #F3D197",
"&. c #F6D397",
"*. c #FFEB9B",
"=. c #E0C7AB",
"-. c #E2CAAB",
";. c #E3CBAB",
":. c #E4CCAC",
">. c #E7CFAC",
",. c #F7DBA3",
"<. c #F4DEAD",
"1. c #F5DFAE",
"2. c #F9E3AE",
"3. c #A69CC2",
"4. c #A79CC3",
"5. c #AC9DC3",
"6. c #AD9EC2",
"7. c #AA9FC5",
"8. c #A6A4C7",
"9. c #AFA1C2",
"0. c #A6A4C9",
"q. c #B4ABCA",
"w. c #B5ABCA",
"e. c #A7ADD3",
"r. c #A8AED3",
"t. c #B1AED1",
"y. c #B2B1D3",
"u. c #B7B1D1",
"i. c #BBB7D6",
"p. c #B7B9D8",
"a. c #B9BDDA",
"s. c #C7B1C0",
"d. c #BDC4E1",
"f. c #BEC5E1",
"g. c #BFC6E2",
"h. c #BEC7E2",
"j. c #B2C8E8",
"k. c #B4CBEB",
"l. c #B8D5F2",
"z. c #B8D9F4",
"x. c #BBDEF9",
"c. c #BBDFF9",
"v. c #BCDEF9",
"b. c #BCDFF9",
"n. c #BDDFF9",
"m. c #BEDFF9",
"M. c #BEE0F9",
"N. c #BEE0FA",
"B. c #BFE0FA",
"V. c #D6C3C8",
"C. c #D9C9CC",
"Z. c #C1C1DD",
"A. c #C2C1DD",
"S. c #E4D5D2",
"D. c #E8DAD3",
"F. c #EFE3D8",
"G. c #FAEFDE",
"H. c #C1CBE5",
"J. c #C0CBE6",
"K. c #C1CCE5",
"L. c #C2CCE6",
"P. c #C2CDE7",
"I. c #CBD1E8",
"U. c #C0E0FA",
"Y. c #C1E1FA",
"T. c #C2E1FA",
"R. c #C2E2FA",
"E. c #C3E2FA",
"W. c #C3E3FA",
"Q. c #C4E3FB",
"!. c #C6E4FB",
"~. c #C7E4FB",
"^. c #C9E4FB",
"/. c #C9E6FB",
"(. c #CAE6FC",
"). c #CBE7FC",
"_. c #CDE7FC",
"`. c #CEE8FC",
"'. c #D5E1F4",
"]. c #D8E6F8",
"[. c #D8E7F8",
"{. c #D0E8FD",
"}. c #D1E9FD",
"|. c #D1EAFD",
" X c #D5EBFD",
".X c #D6EBFE",
"XX c #D7EBFE",
"oX c #D6ECFE",
"OX c #D7ECFE",
"+X c #D7EDFE",
"@X c #D9EDFE",
"#X c #DAEEFE",
"$X c #DAEFFE",
"%X c #DBEEFF",
"&X c #DDEFFE",
"*X c #DDEFFF",
"=X c #DEEFFF",
"-X c #DEF0FF",
";X c None",
/* pixels */
";X;X;X;X;X;X;X;X;X;X;X;X;X;X;X;X;X;X;X;X;X;X;X;X;X;X;X;X;X;X;X;X",
";X;X;X;X;X;X;X;X;X;X;X;X;X;X;X;X;X;X;X;X;X;X;X;X;X;X;X;X;X;X;X;X",
";X;X;X;X;X;X;X;X;X;X;X;X;X;X;X;X;X;X;X;X;X;X;X;X;X;X;X;X;X;X;X;X",
"f X o o o o o o o o o o o o o o o o o o 3 d ;X;X;X;X;X;X;X;X;X;X",
"o h.P.P.o x.x.T.^.b.OX-X@Xn.Q.=X-X-X-Xo f.U 6 ;X;X;X;X;X;X;X;X;X",
"o P.P.P.o x.m._.x.}.-X*XY.B.%Xq.w w.-Xo P.H.Y 3 ;X;X;X;X;X;X;X;X",
"o P.P.P.o v.`.v./.-X-X~.v.+X-X9 #.q -Xo P.P.H.Y 3 ;X;X;X;X;X;X;X",
"o P.P.P.o ).U.E.*X-X`.x.}.-X-Xo *.o oXo P.P.P.J.U u ;X;X;X;X;X;X",
"o P.P.P.o Q.B.#X-X Xc.(.-X-X-Xo *.o B.o P.P.P.P.d.3 ;X;X;X;X;X;X",
"o P.P.P.o c..X-X#XM.W.=X-X-X-X9 #.7 x.o P.P.P.P.K.o $ * + ;X;X;X",
"o P.P.P.o {.-X*XR.N.$X-X-X-X-Xw.i 8.x.o P.P.P.K.' , V C b . ;X;X",
"o P.P.P.5 ].-X^.b.XX-X-X-X-X-X|.x.x.l.8 P.P.K.R 2 M C C C n   ;X",
"o P.P.P.7.5 o o o o o o o o o o o o 4 3.P.L.] P p.p m C C C < # ",
"o P.P.P.P.P.P.P.P.P.P.P.P.P.P.P.P.P.P.P.L.[ W h y.a.y m C C N & ",
"o P.P.P.P.P.P.P.P.P.P.P.P.P.P.P.P.P.P.L.{ ! 1.-.h y.a.y m B > ;X",
"o P.P.P.4.5 o o o o o o o o o o o o o o ~ 1.2.,.+.s y.a.r = % ;X",
"o P.P.P.5 [.-X-X-X-X-X-X-X-X-X-X-X&X} ^ 1.2.,.&.&.+.a t.I 0 ;X;X",
"o P.P.P.o -X-X-X-X-X-X-X-X-X-X-X&X| ^ 1.;.) &.&.&.&.O.O g ;X;X;X",
"o P.P.P.o -X-Xv o o v -Xv o v =X9.Q <.:.; o.&.&.&.%.Z : ;X;X;X;X",
"o P.P.P.o -X-X-X-X-X-X-X-X-X-X6.l >.=.- o.&.&.&.$.A : ;X;X;X;X;X",
"o P.P.P.o -X-Xv o o o o o A.'.e ( z @ X.&.&.&.%.D o ;X;X;X;X;X;X",
"o P.P.P.o -X-X-X-X-X-X-X-X-XI./ G.G.k H @.&.%.S ` o ;X;X;X;X;X;X",
"o P.P.P.o -X-X-X-X-X-X-X-X-XZ...G.G.C. .J %.F _ K.o ;X;X;X;X;X;X",
"o P.P.P.o -X-X-X-X-X-X-X-X-Xu.c F.G.G.V.G F _ K.P.o ;X;X;X;X;X;X",
"o P.P.P.o -Xi.i.-Xv -Xi.i.-X5.o L D.S.s.o o K.P.P.o ;X;X;X;X;X;X",
"o P.P.P.o !.r.e.x.x x.e.e.x.T o o j K E 0.O P.P.P.o ;X;X;X;X;X;X",
"o P.P.P.o x.x.x.x.x.x.x.x.x.k.j.z.x.x.x.x.O P.P.P.o ;X;X;X;X;X;X",
"o g.P.P.o x.x.x.x.x.x.x.x.x.x.x.x.x.x.x.x.O P.P.g.1 ;X;X;X;X;X;X",
"t o o o o o o o o o o o o o o o o o o o o o o o o e ;X;X;X;X;X;X",
";X;X;X;X;X;X;X;X;X;X;X;X;X;X;X;X;X;X;X;X;X;X;X;X;X;X;X;X;X;X;X;X",
";X;X;X;X;X;X;X;X;X;X;X;X;X;X;X;X;X;X;X;X;X;X;X;X;X;X;X;X;X;X;X;X",
";X;X;X;X;X;X;X;X;X;X;X;X;X;X;X;X;X;X;X;X;X;X;X;X;X;X;X;X;X;X;X;X"
};
