/* XPM */
static const char *waffle_icon[] = {
/* columns rows colors chars-per-pixel */
"48 48 114 2 ",
"   c #D06C05",
".  c #D7750F",
"X  c #D9770D",
"o  c #DC790E",
"O  c #D77611",
"+  c #D87710",
"@  c #DD7B11",
"#  c #DD7D19",
"$  c #E56D15",
"%  c #E67016",
"&  c #E97217",
"*  c #E17F15",
"=  c #E6751A",
"-  c #EA7519",
";  c #ED7A1B",
":  c #F17E1D",
">  c #EA7F23",
",  c #DF8116",
"<  c #DE811C",
"1  c #E18117",
"2  c #E4851D",
"3  c #EC851E",
"4  c #E5891E",
"5  c #F5831E",
"6  c #E38623",
"7  c #ED8323",
"8  c #E68A25",
"9  c #EB8E25",
"0  c #EA8529",
"q  c #E78A29",
"w  c #EA8C2B",
"e  c #F28521",
"r  c #F48B25",
"t  c #FA8C22",
"y  c #F28C28",
"u  c #E79425",
"i  c #EB9026",
"p  c #E79528",
"a  c #EC942A",
"s  c #E79829",
"d  c #E99C2D",
"f  c #F2912E",
"g  c #FD962A",
"h  c #F1982F",
"j  c #FA9A2E",
"k  c #EE9434",
"l  c #EC9E30",
"z  c #F09635",
"x  c #F39A33",
"c  c #F19738",
"v  c #F59C3B",
"b  c #ECA233",
"n  c #ECA439",
"m  c #EEA93A",
"M  c #F3A335",
"N  c #FDA434",
"B  c #F3A936",
"V  c #FBA835",
"C  c #F7A13B",
"Z  c #F9A53D",
"A  c #F4AB3B",
"S  c #FAAB3E",
"D  c #F2B03E",
"F  c #FAB13C",
"G  c #EEAE40",
"H  c #F7A040",
"J  c #F9A441",
"K  c #F7AF41",
"L  c #FBAD42",
"P  c #FCA748",
"I  c #F6B445",
"U  c #FAB442",
"Y  c #FBBB45",
"T  c #F7B649",
"R  c #FAB64A",
"E  c #F6BB4C",
"W  c #FCBC4C",
"Q  c #FCB351",
"!  c #FCBD53",
"~  c #F6BF5D",
"^  c #FCBD59",
"/  c #FCC047",
"(  c #F7C14F",
")  c #FDC24C",
"_  c #FDC94F",
"`  c #FCC353",
"'  c #FDCB54",
"]  c #F7C65F",
"[  c #FDC25B",
"{  c #FDCC5A",
"}  c #FED156",
"|  c #FDD25D",
" . c #FFD95E",
".. c #FEC462",
"X. c #FDCD64",
"o. c #F5C76A",
"O. c #FDCE6A",
"+. c #FED463",
"@. c #FED866",
"#. c #FED46B",
"$. c #FFDC6B",
"%. c #FDD572",
"&. c #FFDC71",
"*. c #FDDD79",
"=. c #FFE375",
"-. c #FEE47B",
";. c #FEE683",
":. c #FFE984",
">. c #FFEA8C",
",. c #FFEE93",
"<. c #FFEF98",
"1. c #FFF098",
"2. c #FFF1A0",
"3. c None",
/* pixels */
"3.3.3.3.3.3.3.3.3.3.3.3.3.3.3.3.3.3.3.3.3.3.3.3.3.3.3.3.3.3.3.3.3.3.3.3.3.3.3.3.3.3.3.3.3.3.3.3.",
"3.3.3.3.3.3.3.3.3.3.3.3.3.3.3.3.3.3.3.3.3.3.3.3.3.3.3.3.3.3.3.3.3.3.3.3.3.3.3.3.3.3.3.3.3.3.3.3.",
"3.3.3.3.3.3.3.3.3.3.3.3.3.3.3.3.3.3.3.3.3.3.3.3.3.3.3.3.3.3.3.3.3.3.3.3.3.3.3.3.3.3.3.3.3.3.3.3.",
"3.3.3.3.3.3.3.3.3.3.3.3.3.3.3.3.3.3.3.3.3.3.3.3.3.3.3.3.3.3.3.3.3.3.3.3.3.3.3.3.3.3.3.3.3.3.3.3.",
"3.3.3.3.3.3.3.3.3.3.3.3.3.3.3.3.3.3.3.3.3.3.3.3.3.3.3.3.3.3.3.3.3.3.3.3.3.3.3.3.3.3.3.3.3.3.3.3.",
"3.3.3.3.3.3.3.3.3.3.3.3.3.3.3.3.3.3.3.3.3.3.3.3.3.3.3.3.3.3.3.3.3.3.3.3.3.3.3.3.3.3.3.3.3.3.3.3.",
"3.3.3.3.3.3.3.3.3.3.3.3.3.3.3.3.3.3.3.3.3.3.3.3.3.3.3.3.3.3.3.3.3.3.3.3.3.3.3.3.3.3.3.3.3.3.3.3.",
"3.3.3.3.3.3.3.3.3.3.3.3.3.3.3.3.3.3.3.3.3.3.3.3.3.3.3.3.3.3.3.3.3.3.3.3.3.3.3.3.3.3.3.3.3.3.3.3.",
"3.3.3.3.3.3.3.3.3.3.3.3.3.3.3.3.3.3.3.3.3.=.$.$.$.$.$.3.3.3.3.3.3.3.3.3.3.3.3.3.3.3.3.3.3.3.3.3.",
"3.3.3.3.3.3.3.3.3.3.3.3.3.3.3.3.3.3.3.$.$.$.$.$.$.$.$.$.$.3.3.3.3.3.3.3.3.3.3.3.3.3.3.3.3.3.3.3.",
"3.3.3.3.3.3.3.3.3.3.3.3.3.3.3.3.3.3.$.$.$.$.m a l W @.$.@.@.3.3.3.3.3.3.3.3.3.3.3.3.3.3.3.3.3.3.",
"3.3.3.3.3.3.3.3.3.3.3.3.3.3.3.3.$.$.@.$.( , * 4 a v L { +.@.+.+.3.3.3.3.3.3.3.3.3.3.3.3.3.3.3.3.",
"3.3.3.3.3.3.3.3.3.3.3.3.3.3.$.$.$.@.@.@.b X X # w v L ! +.+. .+.{ +.3.3.3.3.3.3.3.3.3.3.3.3.3.3.",
"3.3.3.3.3.3.3.3.3.3.3.3.3.@.@.@.+.n 9 a T m # q c P ! m 9 a T { | | | 3.3.3.3.3.3.3.3.3.3.3.3.3.",
"3.3.3.3.3.3.3.3.3.3.3.@.@.@.@.I , 1 4 i h Z [ E ! I 1 1 4 i a J [ | { { { 3.3.3.3.3.3.3.3.3.3.3.",
"3.3.3.3.3.3.3.3.3.@.@.+.@.| +.d X . # q x Z ` | { d o + # q x Z W ' { { ' { ' 3.3.3.3.3.3.3.3.3.",
"3.3.3.3.3.3.3.+.+.+.+.{ d 4 a I m # 6 k H E b 9 a I b # 6 k H R d 4 i A ` ' ` ' ` 3.3.3.3.3.3.3.",
"3.3.3.3.3.3.+.+.+.+.m @ 1 4 w x Z ' E W m , o.>.,.%.Z ` I T D # , 2 9 h Z W ` ' ` ` 3.3.3.3.3.3.",
"3.3.3.3.+.+.| | { { d o + * q x Z ` { { d ,.>.>.;.:.%.W ` ' b o O # q k Z W ) W ) _ _ ) 3.3.3.3.",
"3.3.| +.| | ( d 4 a I n < q k H T a 4 a ..1.,.,.>.>.:.n 4 i A A < 6 k Z T a 4 9 M W W ) ) W 3.3.",
"3.#.| | | d o 1 2 i x Z ` W ! b @ 1 4 9 ] <.<.,.,.,.>.;.4 9 x C W U T B @ * 2 8 a Z U W W W ` 3.",
"3.#.{ { { s X   . 6 x Z W ' ' p o + < w 0 ;.2.2.,.;.=.-.# 6 c Z Y T Y M X X # q k Z U W W Y ` 3.",
"&.@.#.| { [ b + 6 k P I i 4 i I b 2 q k w ~ >.;.-.-.-.%.$ > H U u 2 9 M A 2 q a H U W Y W ` T [ ",
"&. . .#.#.{ { ' T ) d @ 1 4 9 x Z ) I W 8 - *.;.-.%.z $ $ & a o 1 1 9 h C T U U T Y U ` W F F ! ",
"#.@. . . .#.X.` ' ` u X + * w x S W T W u 7 = ; = $ % & & : w o O < q k Z U Y Y Y ` [ F F S U ..",
"+.' +.@. .| +.#.] ' ) b 6 w c J S 4 2 9 y y - & & - - - ; r r V 4 q k Z U T U W [ U F S F W Q ! ",
"3.' ' ' +.+.} } +.O.` ) W T W u o 1 2 9 e 3 ; 5 : ; ; : : 5 y r S F Y F U U [ ! F S F W ! U ! 3.",
"3.T W ' ' +.#.} } ' #.X.W W / d X + 2 e : : x S U 7 : : 5 5 5 t j Y F U ` ` F S F U ` Y F S Q 3.",
"3.3.U A ) ' ' +.+.' ' ' O.[ Y Y A 2 q 5 5 M 4 4 9 M M 7 9 z t t g F ! [ U F S U ` ! F F Z S 3.3.",
"3.3.3.3.L S _ ' { +.{ ' _ { O.` Y Y F t 3 o 1 1 9 h Z U S F N t g [ W F F F ! ` U F S S 3.3.3.3.",
"3.3.3.3.3.3.A U ' _ { X.' _ _ [ ..W F t 9 X O 2 w v Z F F F S g N F F S W ` Y U F Z U 3.3.3.3.3.",
"3.3.3.3.3.3.3.I Z U ' ' X.{ ) ) ` [ L g j V 6 w c Z F F F Q ! g V F U [ W Y U S S 3.3.3.3.3.3.3.",
"3.3.3.3.3.3.3.3.3.U Z ) _ ' { ` Y / Z j Z F S F F F F W [ W S F F ` ! Y Y S Z 3.3.3.3.3.3.3.3.3.",
"3.3.3.3.3.3.3.3.3.3.3.L U / _ ` ' W F g R [ W U F R ^ W V F F ) ` W Y S S 3.3.3.3.3.3.3.3.3.3.3.",
"3.3.3.3.3.3.3.3.3.3.3.3.U S U ) _ _ ) F Y Y ` [ [ ! F F F W ` ) Y U S F 3.3.3.3.3.3.3.3.3.3.3.3.",
"3.3.3.3.3.3.3.3.3.3.3.3.3.3.T Z Y ) ) ) / F F ) W F F U ! ) Y U S L 3.3.3.3.3.3.3.3.3.3.3.3.3.3.",
"3.3.3.3.3.3.3.3.3.3.3.3.3.3.3.3.L S Y ) / / Y Y W U ) ) Y Y S S 3.3.3.3.3.3.3.3.3.3.3.3.3.3.3.3.",
"3.3.3.3.3.3.3.3.3.3.3.3.3.3.3.3.3.3.S U Y / ) ) ) W W Y U S U 3.3.3.3.3.3.3.3.3.3.3.3.3.3.3.3.3.",
"3.3.3.3.3.3.3.3.3.3.3.3.3.3.3.3.3.3.3.U Z U Y / Y Y U S S 3.3.3.3.3.3.3.3.3.3.3.3.3.3.3.3.3.3.3.",
"3.3.3.3.3.3.3.3.3.3.3.3.3.3.3.3.3.3.3.3.3.U Z S S S F 3.3.3.3.3.3.3.3.3.3.3.3.3.3.3.3.3.3.3.3.3.",
"3.3.3.3.3.3.3.3.3.3.3.3.3.3.3.3.3.3.3.3.3.3.3.3.3.3.3.3.3.3.3.3.3.3.3.3.3.3.3.3.3.3.3.3.3.3.3.3.",
"3.3.3.3.3.3.3.3.3.3.3.3.3.3.3.3.3.3.3.3.3.3.3.3.3.3.3.3.3.3.3.3.3.3.3.3.3.3.3.3.3.3.3.3.3.3.3.3.",
"3.3.3.3.3.3.3.3.3.3.3.3.3.3.3.3.3.3.3.3.3.3.3.3.3.3.3.3.3.3.3.3.3.3.3.3.3.3.3.3.3.3.3.3.3.3.3.3.",
"3.3.3.3.3.3.3.3.3.3.3.3.3.3.3.3.3.3.3.3.3.3.3.3.3.3.3.3.3.3.3.3.3.3.3.3.3.3.3.3.3.3.3.3.3.3.3.3.",
"3.3.3.3.3.3.3.3.3.3.3.3.3.3.3.3.3.3.3.3.3.3.3.3.3.3.3.3.3.3.3.3.3.3.3.3.3.3.3.3.3.3.3.3.3.3.3.3.",
"3.3.3.3.3.3.3.3.3.3.3.3.3.3.3.3.3.3.3.3.3.3.3.3.3.3.3.3.3.3.3.3.3.3.3.3.3.3.3.3.3.3.3.3.3.3.3.3.",
"3.3.3.3.3.3.3.3.3.3.3.3.3.3.3.3.3.3.3.3.3.3.3.3.3.3.3.3.3.3.3.3.3.3.3.3.3.3.3.3.3.3.3.3.3.3.3.3.",
"3.3.3.3.3.3.3.3.3.3.3.3.3.3.3.3.3.3.3.3.3.3.3.3.3.3.3.3.3.3.3.3.3.3.3.3.3.3.3.3.3.3.3.3.3.3.3.3."
};
